<svg width="475" height="505" viewBox="0 0 475 505" fill="none" xmlns="http://www.w3.org/2000/svg">
<path fill-rule="evenodd" clip-rule="evenodd" d="M298.593 20.4542C311.793 15.4586 326.484 13.6364 341.997 14.1621C360.871 14.803 380.027 18.7995 397.787 24.4604M298.592 20.4547C277.948 28.2652 259.448 45.9021 245.66 64.6891C231.84 83.5191 221.562 105.132 218.501 122.569L215.658 138.759C214.943 142.832 216.685 146.946 220.108 149.266C223.531 151.587 227.997 151.682 231.516 149.509L245.464 140.898C262.564 130.341 278.022 126.308 323.669 123.246C323.724 123.243 323.779 123.24 323.834 123.236C349.074 121.547 371.144 109.807 389.833 92.1157C398.265 84.1363 405.554 75.3715 411.71 66.4606C413.769 63.4817 416.728 58.3834 418.982 54.4033C420.154 52.335 421.212 50.432 421.976 49.0472C422.359 48.3539 422.669 47.7885 422.885 47.3947C422.992 47.1978 423.077 47.0436 423.134 46.9377L423.225 46.7715C423.225 46.7715 423.226 46.7701 414 41.7565L423.226 46.7701C424.659 44.1331 424.895 41.009 423.874 38.1867C422.854 35.3643 420.675 33.1134 417.887 32.0025L414 41.7565C417.887 32.0025 417.887 32.0025 417.887 32.0025L417.886 32.002L417.883 32.001L417.26 31.7537C416.863 31.5961 416.29 31.3698 415.587 31.093C414.182 30.5399 412.248 29.7832 410.137 28.9698C406.03 27.3874 400.887 25.448 397.788 24.4608M398.927 47.1692C395.929 46.0379 393.123 45.0146 391.412 44.4694L391.411 44.469C374.992 39.2357 357.779 35.7103 341.286 35.1501M398.927 47.1692C397.177 50.1938 395.507 52.9696 394.435 54.5208L394.434 54.5222C389.011 62.3714 382.654 69.9966 375.397 76.8638L375.396 76.8649C359.378 92.0283 341.759 100.948 322.586 102.273C322.534 102.275 322.482 102.278 322.431 102.282C280.566 105.083 260.303 108.801 240.796 119.341C244.379 106.896 252.048 91.4778 262.59 77.1142C275.203 59.9289 290.737 45.879 306.024 40.0956L306.025 40.095C315.996 36.3213 327.786 34.6927 341.286 35.1501" fill="#B3F844"/>
<path fill-rule="evenodd" clip-rule="evenodd" d="M237.029 343.421C240.393 343.397 244.062 343.39 247.966 343.383C276.692 343.33 318.174 343.254 345 336.005C377.632 326.522 431.22 285.968 428.671 278.005C407.44 211.682 346.782 163.855 275.344 163.855C256.812 163.855 238.72 167.07 221.618 173.284C219.684 173.987 217.571 173.987 215.637 173.284C198.535 167.069 180.441 163.855 161.91 163.855C72.82 163.855 0.5 238.234 0.5 330.105C0.5 421.976 72.824 496.355 161.91 496.355C180.442 496.355 198.535 493.14 215.637 486.925C217.571 486.222 219.684 486.222 221.618 486.925C238.72 493.14 256.813 496.355 275.344 496.355C339.421 496.355 394.823 457.878 420.881 402.091C421.08 401.665 421.278 401.238 421.473 400.81C424.22 394.797 426.628 388.587 428.671 382.206C429.136 380.752 427.343 380.341 423.678 380.608C420.07 380.87 414.647 381.788 407.779 383.014C407.208 383.116 406.628 383.22 406.037 383.326C405.432 383.434 404.818 383.544 404.193 383.657C379.365 388.116 338.723 395.416 296.5 392.075C259.364 386.725 238.727 375.014 227.614 364.584C227.147 364.146 226.698 363.711 226.264 363.278C217.978 355.005 215.637 347.763 215.637 345.505C215.637 343.889 223.853 343.524 236.513 343.425C236.684 343.424 236.856 343.422 237.029 343.421ZM236.104 341.629C236.11 341.629 236.15 341.719 236.205 341.899C236.126 341.718 236.098 341.628 236.104 341.629ZM221.751 364.973C221.748 364.972 221.796 364.963 221.902 364.948C221.807 364.966 221.754 364.974 221.751 364.973ZM394.708 406.652C394.175 406.742 393.635 406.833 393.087 406.926C367.912 411.16 332.201 415.966 294.843 413.009L294.172 412.956L293.505 412.86C256.339 407.506 232.201 395.952 216.897 383.135C209.282 376.757 203.985 370.166 200.48 364.131C197.484 358.972 194.637 352.204 194.637 345.505C194.637 337.258 199.121 331.748 202.259 329.073C205.134 326.623 208.007 325.458 209.38 324.955C212.277 323.894 215.099 323.475 216.694 323.27C220.293 322.808 224.745 322.625 229.119 322.527C234.369 322.409 241.055 322.396 248.315 322.382C253.189 322.372 258.322 322.362 263.453 322.319C290.536 322.094 320.082 320.939 339.324 315.785C352.191 311.996 371.328 301.19 387.78 289.376C395.118 284.108 401.219 279.14 405.391 275.218C384.346 221.896 333.753 184.855 275.344 184.855C259.26 184.855 243.596 187.642 228.794 193.02C228.793 193.02 228.791 193.021 228.79 193.021C222.223 195.408 215.031 195.408 208.464 193.021C208.463 193.021 208.462 193.02 208.46 193.02C193.659 187.642 177.994 184.855 161.91 184.855C84.9896 184.855 21.5 249.252 21.5 330.105C21.5 410.957 84.9933 475.355 161.91 475.355C177.995 475.355 193.659 472.567 208.46 467.189C215.029 464.801 222.222 464.8 228.79 467.188C228.791 467.188 228.793 467.189 228.794 467.189C243.595 472.568 259.261 475.355 275.344 475.355C325.466 475.355 369.83 448.082 394.708 406.652Z" fill="#B3F844"/>
<path fill-rule="evenodd" clip-rule="evenodd" d="M347.031 320.088L352.739 341.321C353.384 343.721 355.848 345.129 358.243 344.465L373.318 340.285C375.712 339.621 377.131 337.137 376.486 334.737L370.778 313.503L391.015 307.892L396.722 329.125C400.378 342.726 392.34 356.802 378.769 360.565L363.694 364.745C350.123 368.508 336.158 360.533 332.502 346.932L326.795 325.699L347.031 320.088Z" fill="#B3F844"/>
<path fill-rule="evenodd" clip-rule="evenodd" d="M305.485 331.076L307.701 346.892C308.045 349.353 310.318 351.053 312.776 350.689L326.32 348.683C328.778 348.319 330.492 346.029 330.147 343.567L327.932 327.752L348.705 324.675L350.92 340.49C352.874 354.438 343.164 367.417 329.232 369.48L315.689 371.486C301.758 373.55 288.881 363.916 286.927 349.969L284.712 334.153L305.485 331.076Z" fill="#B3F844"/>
<path fill-rule="evenodd" clip-rule="evenodd" d="M265.85 331.741L265.952 346.724C265.969 349.209 267.997 351.194 270.482 351.158L280.63 351.008C283.115 350.972 285.116 348.928 285.099 346.442L284.997 331.46L305.994 331.151L306.096 346.134C306.192 360.216 294.854 371.801 280.773 372.008L270.625 372.157C256.543 372.364 245.05 361.116 244.954 347.033L244.852 332.05L265.85 331.741Z" fill="#B3F844"/>
<path fill-rule="evenodd" clip-rule="evenodd" d="M227.275 328.995L225.649 343.889C225.38 346.36 227.166 348.565 229.638 348.816L239.736 349.837C242.208 350.087 244.431 348.287 244.701 345.816L246.326 330.922L267.22 333.035L265.594 347.93C264.066 361.93 251.469 372.13 237.457 370.713L227.36 369.692C213.348 368.274 203.228 355.776 204.756 341.776L206.382 326.881L227.275 328.995Z" fill="#B3F844"/>
<path fill-rule="evenodd" clip-rule="evenodd" d="M387.952 297.523L398.553 322.031C399.54 324.312 402.182 325.346 404.456 324.342L418.114 318.305C420.387 317.301 421.43 314.637 420.443 312.356L409.842 287.848L429.05 279.359L439.651 303.867C445.242 316.793 439.332 331.886 426.451 337.579L412.793 343.616C399.911 349.309 384.937 343.446 379.345 330.52L368.744 306.012L387.952 297.523Z" fill="#B3F844"/>
<path fill-rule="evenodd" clip-rule="evenodd" d="M211.91 111.615C214.074 134.248 214.457 158.33 213.808 179.92C213.707 183.256 213.609 185.631 213.543 186.873C213.293 191.701 217 195.814 221.824 196.068C226.652 196.318 230.765 192.611 231.019 187.787C231.09 186.42 231.195 183.916 231.301 180.447C231.968 158.189 231.578 133.431 229.332 109.951C225.914 74.2173 218.879 48.2633 206.176 35.0173C202.828 31.529 197.293 31.4118 193.805 34.7595C190.316 38.1033 190.199 43.6423 193.543 47.1305C202.582 56.5524 208.863 79.7125 211.91 111.615V111.615Z" fill="#B3F844"/>
</svg>
